Coordinates
version=1
nRows=11
nColumns=63
inDegrees=yes

Units are S.I. units (second, meters, Newtons, ...)
If the header above contains a line with 'inDegrees', this indicates whether rotational values are in degrees (yes) or radians (no).

endheader
time	pelvis_tilt	pelvis_list	pelvis_rotation	pelvis_tx	pelvis_ty	pelvis_tz	hip_flexion_r	hip_adduction_r	hip_rotation_r	knee_angle_r	knee_angle_r_beta	ankle_angle_r	subtalar_angle_r	mtp_angle_r	hip_flexion_l	hip_adduction_l	hip_rotation_l	knee_angle_l	knee_angle_l_beta	ankle_angle_l	subtalar_angle_l	mtp_angle_l	L5_S1_Flex_Ext	L5_S1_Lat_Bending	L5_S1_axial_rotation	L4_L5_Flex_Ext	L4_L5_Lat_Bending	L4_L5_axial_rotation	L3_L4_Flex_Ext	L3_L4_Lat_Bending	L3_L4_axial_rotation	L2_L3_Flex_Ext	L2_L3_Lat_Bending	L2_L3_axial_rotation	L1_L2_Flex_Ext	L1_L2_Lat_Bending	L1_L2_axial_rotation	L1_T12_Flex_Ext	L1_T12_Lat_Bending	L1_T12_axial_rotation	Abs_r3	Abs_r2	Abs_r1	Abs_t1	Abs_t2	neck_flexion	neck_bending	neck_rotation	arm_flex_r	arm_add_r	arm_rot_r	elbow_flex_r	pro_sup_r	wrist_flex_r	wrist_dev_r	arm_flex_l	arm_add_l	arm_rot_l	elbow_flex_l	pro_sup_l	wrist_flex_l	wrist_dev_l
      5.39285714	     -5.78768361	     -5.79743867	     83.48513252	      0.20492572	      0.81679178	      0.64951253	      5.27010421	     -6.85358145	     -7.39769502	      8.56359457	      0.14946292	     20.69866561	     16.09755651	      0.00000000	      4.82605087	      5.27645818	      5.13019808	      5.25570058	      0.09172928	     11.34680232	    -12.91948773	      0.00000000	      0.39294956	     -0.49347829	      0.01555871	      0.72974663	     -0.65632613	      0.01653113	      0.64557684	     -1.19984312	      0.01653113	      0.44910206	     -1.19984312	      0.01361387	      0.36489296	     -1.00630093	      0.01264145	      0.22453138	     -0.76439787	      0.01166903	      2.80679943	     -5.58232513	      0.08653288	      0.00000000	      0.00000000	     28.16524762	     -6.92990982	    -12.97996562	    -17.88910035	    -17.62446106	     11.34386443	    123.91997065	     86.09533834	     -5.89354408	     13.05617100	    -24.08799741	    -16.24033101	     -5.03492117	    128.15694511	     78.59440482	      3.82555319	      8.74634217
      5.41071429	     -5.76805546	     -5.77556707	     83.77611576	      0.20482888	      0.81662802	      0.64897653	      5.08449399	     -6.84787721	     -7.83477659	      8.55600860	      0.14933052	     20.66991141	     16.09404928	      0.00000000	      4.81771591	      5.25846147	      4.90297223	      5.44938061	      0.09510963	     11.58865629	    -12.06341673	      0.00000000	      0.38771184	     -0.49080789	     -0.04099314	      0.72001966	     -0.65277450	     -0.04355521	      0.63697179	     -1.19335031	     -0.04355521	      0.44311587	     -1.19335031	     -0.03586900	      0.36002922	     -1.00085545	     -0.03330693	      0.22153855	     -0.76026143	     -0.03074486	      2.76938693	     -5.55211704	     -0.22799155	      0.00000000	      0.00000000	     28.17201741	     -6.68909447	    -12.13767630	    -17.97886020	    -17.32100939	     11.28166455	    124.51040070	     85.39921445	     -5.93898564	     13.20554954	    -23.65957808	    -16.21475933	     -4.92167056	    128.09659772	     79.22585911	      3.43425808	      9.28508477
      5.42857143	     -5.77046583	     -5.77591204	     83.87225429	      0.20487150	      0.81633439	      0.64846519	      4.98673092	     -6.87062986	     -8.10712915	      8.57480254	      0.14965854	     20.75382636	     16.23559376	      0.00000000	      4.84153179	      5.24867623	      4.31108831	      5.66900166	      0.09894274	     11.83791426	    -11.03707322	      0.00000000	      0.39037182	     -0.48587582	     -0.07392681	      0.72495950	     -0.64621484	     -0.07854724	      0.64134186	     -1.18135847	     -0.07854724	      0.44615595	     -1.18135847	     -0.06468596	      0.36249927	     -0.99079797	     -0.06006553	      0.22305846	     -0.75262165	     -0.05544511	      2.78838685	     -5.49632447	     -0.41115874	      0.00000000	      0.00000000	     28.18533482	     -6.35475748	    -11.33307765	    -17.94878055	    -17.14404034	     11.34755448	    124.95219075	     84.86410450	     -5.99522496	     13.37028827	    -23.18928875	    -16.05037934	     -4.90947355	    127.72883784	     79.42618127	      3.25743408	     10.03840091
      5.44642857	     -5.71649640	     -5.72283523	     84.22786205	      0.20436663	      0.81615168	      0.64807654	      4.80402100	     -6.86338849	     -8.39647313	      8.60969788	      0.15026758	     20.92833550	     16.05703677	      0.00000000	      4.75957639	      5.24871989	      4.61078834	      5.75714728	      0.10048118	     11.72826151	    -10.98868551	      0.00000000	      0.37919157	     -0.47281488	     -0.13472014	      0.70419666	     -0.62884379	     -0.14314015	      0.62297383	     -1.14960211	     -0.14314015	      0.43337804	     -1.14960211	     -0.11788013	      0.35211729	     -0.96416411	     -0.10946012	      0.21667006	     -0.73239025	     -0.10104011	      2.70852746	     -5.34857651	     -0.74927303	      0.00000000	      0.00000000	     28.19782650	     -6.33062816	    -11.06950336	    -17.92534087	    -17.05953783	     11.34520302	    125.25202770	     84.57552239	     -5.99057538	     13.28081290	    -22.47291490	    -15.90360081	     -4.62075557	    126.82278572	     80.02652979	      2.86543241	      9.88942753
      5.46428571	     -5.65741800	     -5.71710114	     84.64476186	      0.20396455	      0.81582277	      0.64772735	      4.61159306	     -6.82613077	     -8.69887785	      8.46867508	      0.14780626	     21.08599378	     16.01870776	      0.00000000	      4.80696908	      5.22573711	      4.92072700	      6.00865931	      0.10487089	     11.83676930	    -10.82121764	      0.00000000	      0.38119454	     -0.46307330	     -0.21264130	      0.70791638	     -0.61588749	     -0.22593138	      0.62626451	     -1.12591642	     -0.22593138	      0.43566724	     -1.12591642	     -0.18606114	      0.35397725	     -0.94429907	     -0.17277106	      0.21781456	     -0.71730054	     -0.15948098	      2.72283447	     -5.23837779	     -1.18264714	      0.00000000	      0.00000000	     28.21041110	     -6.06174246	    -10.86220385	    -17.93768099	    -16.96137090	     11.40211753	    125.40215184	     84.19956748	     -5.95035307	     13.38803943	    -21.73965070	    -15.89826320	     -4.14094373	    125.79310338	     81.64462988	      1.31328470	      9.57554870
      5.48214286	     -5.72392397	     -5.80861892	     84.66295906	      0.20416571	      0.81531709	      0.64745376	      4.67398077	     -6.89102592	     -8.50716111	      8.36988654	      0.14608208	     21.31865399	     16.11804426	      0.00000000	      4.85373621	      5.29034007	      4.88679782	      5.97812528	      0.10433797	     11.79136553	    -10.79460526	      0.00000000	      0.40747853	     -0.46907359	     -0.25364581	      0.75672837	     -0.62386788	     -0.26949867	      0.66944647	     -1.14050553	     -0.26949867	      0.46570721	     -1.14050553	     -0.22194009	      0.37838456	     -0.95653487	     -0.20608722	      0.23283323	     -0.72659499	     -0.19023436	      2.91057838	     -5.30625427	     -1.41070191	      0.00000000	      0.00000000	     28.21081628	     -5.98594845	    -10.99427614	    -17.83687919	    -16.93259295	     11.72827371	    125.28742729	     84.23079400	     -5.87236414	     13.46639413	    -21.13268469	    -15.64983092	     -4.17983248	    124.60615401	     81.78800742	      1.00543885	      9.83344933
      5.50000000	     -5.81572539	     -5.74777624	     84.79362684	      0.20405326	      0.81516759	      0.64779569	      4.62555838	     -6.99689321	     -8.14676870	      8.26065128	      0.14417556	     21.36416075	     15.79040860	      0.00000000	      4.92027224	      5.38589393	      4.61700785	      6.22139583	      0.10858384	     11.68254005	    -10.39309953	      0.00000000	      0.39079635	     -0.48727715	     -0.27876421	      0.72574789	     -0.64807861	     -0.29618698	      0.64203932	     -1.18476566	     -0.29618698	      0.44664114	     -1.18476566	     -0.24391869	      0.36289349	     -0.99365556	     -0.22649592	      0.22330103	     -0.75479231	     -0.20907316	      2.79141922	     -5.51217658	     -1.55040292	      0.00000000	      0.00000000	     28.21896238	     -6.20979274	    -12.14923118	    -17.60999489	    -17.04184968	     11.96142002	    125.14897912	     84.59813826	     -5.87061024	     14.02197962	    -20.15214412	    -15.75814903	     -3.44223042	    123.87107640	     83.32174051	     -2.30221098	     11.96350743
      5.51785714	     -5.85162829	     -5.75858878	     84.76688315	      0.20425737	      0.81507936	      0.64828814	      4.71136119	     -7.02577764	     -7.89891810	      8.19140131	      0.14296692	     21.29847970	     15.70190958	      0.00000000	      5.00246406	      5.40185917	      4.32080528	      6.33213967	      0.11051669	     11.27668087	    -10.51578192	      0.00000000	      0.38729456	     -0.49877039	     -0.28331632	      0.71924473	     -0.66336462	     -0.30102359	      0.63628623	     -1.21271032	     -0.30102359	      0.44263895	     -1.21271032	     -0.24790178	      0.35964173	     -1.01709258	     -0.23019451	      0.22130011	     -0.77259533	     -0.21248724	      2.76640632	     -5.64219039	     -1.57572038	      0.00000000	      0.00000000	     28.21834456	     -6.26683919	    -12.88908768	    -17.29360131	    -17.24984839	     12.29794170	    124.65245564	     84.95320651	     -5.86094166	     14.14882099	    -19.23936644	    -15.78092553	     -3.10710162	    122.78509703	     83.56642280	     -3.23384321	     13.03206788
      5.53571429	     -5.92808849	     -5.79413996	     84.61494809	      0.20456156	      0.81503595	      0.64875164	      4.84746352	     -7.08911233	     -7.47439179	      8.13254058	      0.14193961	     21.09737558	     15.60807430	      0.00000000	      5.10778272	      5.45107718	      4.18958328	      6.46462478	      0.11282899	     10.60480523	    -11.09705537	      0.00000000	      0.38636369	     -0.51755323	     -0.24685589	      0.71751600	     -0.68834579	     -0.26228438	      0.63475690	     -1.25837892	     -0.26228438	      0.44157506	     -1.25837892	     -0.21599890	      0.35877732	     -1.05539454	     -0.20057041	      0.22076821	     -0.80168995	     -0.18514191	      2.75975718	     -5.85466562	     -1.37293838	      0.00000000	      0.00000000	     28.21396098	     -6.60090774	    -14.01373635	    -17.08262948	    -17.43897522	     12.54480769	    123.94318286	     85.62181477	     -6.10500262	     14.23232711	    -18.47537910	    -15.79719518	     -2.71040488	    122.10291652	     83.72429417	     -4.50121450	     14.72118327
      5.55357143	     -5.99470526	     -5.84258857	     84.37394849	      0.20468971	      0.81504352	      0.64916864	      5.04050709	     -7.14845103	     -7.05873053	      8.14161574	      0.14209800	     20.74001933	     15.40195097	      0.00000000	      5.14014621	      5.52551971	      4.42675149	      6.44703985	      0.11252207	      9.53577588	    -12.60368976	      0.00000000	      0.38641700	     -0.52960484	     -0.17653520	      0.71761501	     -0.70437443	     -0.18756865	      0.63484449	     -1.28768120	     -0.18756865	      0.44163599	     -1.28768120	     -0.15446830	      0.35882683	     -1.07997018	     -0.14343485	      0.22079867	     -0.82035789	     -0.13240140	      2.76013799	     -5.99099583	     -0.98183584	      0.00000000	      0.00000000	     28.20095277	     -7.26767418	    -15.33539138	    -17.04537806	    -17.69965292	     12.65707396	    123.07015310	     86.29352081	     -6.69011275	     14.16898711	    -17.93095036	    -15.90485658	     -2.25254860	    121.61696010	     83.89590933	     -5.38358462	     15.86681715
      5.57142857	     -6.00943628	     -5.87136940	     84.35906089	      0.20446726	      0.81529088	      0.64958136	      5.11933084	     -7.17303453	     -7.03945643	      8.08771655	      0.14115728	     20.32663296	     15.37774607	      0.00000000	      5.22850106	      5.53589097	      4.16600986	      6.62480687	      0.11562469	      8.72267739	    -13.19670526	      0.00000000	      0.38471582	     -0.53247073	     -0.16905704	      0.71445574	     -0.70818607	     -0.17962310	      0.63204961	     -1.29464933	     -0.17962310	      0.43969171	     -1.29464933	     -0.14792491	      0.35724711	     -1.08581431	     -0.13735884	      0.21982662	     -0.82479716	     -0.12679278	      2.74798661	     -6.02341538	     -0.94024454	      0.00000000	      0.00000000	     28.19228570	     -7.32799791	    -15.61845638	    -17.00710971	    -18.05360827	     12.76044282	    121.94647651	     86.54294915	     -6.82597652	     14.32463870	    -17.74756972	    -16.09917420	     -1.99539625	    121.30948734	     83.98452092	     -5.29232432	     15.94796479
